HIERARCHY
ROOT hip
{
	OFFSET 0.000000 0.000000 0.000000 
	CHANNELS 6 Xposition Yposition Zposition Xrotation Zrotation Yrotation
	JOINT abdomen
	{
		OFFSET 0.000000 3.402643 0.000000 
		CHANNELS 3 Xrotation Zrotation Yrotation
		JOINT chest
		{
			OFFSET 0.000000 8.438565 -0.680529 
			CHANNELS 3 Xrotation Zrotation Yrotation
			JOINT neck
			{
				OFFSET 0.000000 10.207942 -0.272212 
				CHANNELS 3 Xrotation Zrotation Yrotation
				JOINT head
				{
					OFFSET 0.000000 3.130431 0.000000 
					CHANNELS 3 Xrotation Zrotation Yrotation
					End Site
					{
						OFFSET 0.000000 3.130435 0.000000 
					}
				}
			}
			JOINT lCollar
			{
				OFFSET 3.470700 6.669187 -0.816635 
				CHANNELS 3 Yrotation Zrotation Xrotation
				JOINT lShldr
				{
					OFFSET 3.198488 0.000000 0.000000 
					CHANNELS 3 Zrotation Yrotation Xrotation
					JOINT lForeArm
					{
						OFFSET 10.139888 0.000000 0.000000 
						CHANNELS 3 Yrotation Zrotation Xrotation
						JOINT lHand
						{
							OFFSET 8.370511 0.000000 0.000000 
							CHANNELS 3 Zrotation Yrotation Xrotation
							End Site
							{
								OFFSET 4.083176 0.000000 0.000000 
							}
						}
					}
				}
			}
			JOINT rCollar
			{
				OFFSET -3.470700 6.669187 -0.816635 
				CHANNELS 3 Yrotation Zrotation Xrotation
				JOINT rShldr
				{
					OFFSET -3.198488 0.000000 0.000000 
					CHANNELS 3 Zrotation Yrotation Xrotation
					JOINT rForeArm
					{
						OFFSET -10.139888 0.000000 0.000000 
						CHANNELS 3 Yrotation Zrotation Xrotation
						JOINT rHand
						{
							OFFSET -8.370511 0.000000 0.000000 
							CHANNELS 3 Zrotation Yrotation Xrotation
							End Site
							{
								OFFSET -4.083176 0.000000 0.000000 
							}
						}
					}
				}
			}
		}
	}
	JOINT lThigh
	{
		OFFSET 5.308129 -1.633274 1.361059 
		CHANNELS 3 Xrotation Zrotation Yrotation
		JOINT lShin
		{
			OFFSET -2.041588 -20.007561 0.000000 
			CHANNELS 3 Xrotation Zrotation Yrotation
			JOINT lFoot
			{
				OFFSET 0.000000 -19.190928 -1.224953 
				CHANNELS 3 Xrotation Yrotation Zrotation
				End Site
				{
					OFFSET 0.000000 -2.449906 4.627600 
				}
			}
		}
	}
	JOINT rThigh
	{
		OFFSET -5.308129 -1.633274 1.361059 
		CHANNELS 3 Xrotation Zrotation Yrotation
		JOINT rShin
		{
			OFFSET 2.041588 -20.007561 0.000000 
			CHANNELS 3 Xrotation Zrotation Yrotation
			JOINT rFoot
			{
				OFFSET 0.000000 -19.190928 -1.224953 
				CHANNELS 3 Xrotation Yrotation Zrotation
				End Site
				{
					OFFSET 0.000000 -2.449906 4.627600 
				}
			}
		}
	}
}
MOTION
Frames: 18
Frame Time: 0.033333
1.334230 48.765419 -3.393718 5.881905 -1.826278 -7.512547 0.000000 0.000000 0.000000 -26.904516 2.979036 3.089005 34.186474 4.970666 -2.233343 -22.551603 -2.465908 0.464462 -3.519355 9.157742 6.311733 10.000721 14.817221 -9.677886 -13.412777 4.580129 -0.173768 3.853060 10.265592 -8.462994 3.090466 -14.082293 8.028685 -0.919255 -6.500843 3.811548 0.186257 -3.693539 10.996924 -7.040179 -11.380129 -8.821800 -10.650282 10.814417 10.898564 20.322348 -7.578528 -16.289143 -7.057786 0.058476 0.368626 -8.628306 -3.464076 -10.177012 11.815381 4.589616 -1.263334 -5.290471 0.000737 -0.913928 
1.326519 48.760216 -3.371243 5.959847 -1.758030 -7.400512 0.000000 0.000000 0.000000 -27.035175 2.731872 3.206528 34.138039 5.247588 -2.263005 -22.611773 -2.522846 0.492606 -3.519355 9.157742 6.311733 10.408177 14.706169 -10.407240 -13.571542 4.656366 0.727453 4.411618 10.450600 -8.478129 3.090466 -14.082293 8.028685 -0.650182 -6.548402 3.868159 0.208155 -3.708223 10.732976 -7.109167 -11.941741 -8.831694 -10.759402 10.768116 10.847942 20.389482 -7.591668 -16.345551 -6.999988 0.057274 0.293134 -8.705642 -3.541548 -10.237741 11.856495 4.595927 -1.307602 -5.271541 -0.006768 -0.874598 
1.330827 48.764000 -3.342240 6.018595 -1.796689 -7.279454 0.000000 0.000000 0.000000 -27.112524 2.695199 3.240118 34.028172 5.230381 -2.248160 -22.649534 -2.471713 0.483488 -3.519355 9.157742 6.311733 10.539055 14.759142 -10.635359 -13.803189 4.720631 0.829407 4.742108 10.426787 -8.485699 3.090466 -14.082293 8.028685 -0.705478 -6.560321 4.107694 0.105495 -3.523042 10.501702 -6.958400 -11.605590 -8.829581 -10.750147 10.778609 10.838266 20.307907 -7.582229 -16.404312 -7.029168 0.036842 0.348123 -8.704202 -3.521060 -10.237736 11.851253 4.617406 -1.403970 -5.301181 -0.002227 -0.872722 
1.334327 48.772038 -3.312242 5.999118 -1.816177 -7.056275 0.000000 0.000000 0.000000 -27.072805 2.670052 3.167382 34.030266 4.862943 -2.163863 -22.779308 -2.184682 0.404116 -3.519355 9.157742 6.311733 10.462661 14.756214 -10.623493 -13.748581 4.696413 0.685068 5.166985 10.366496 -8.488381 3.090466 -14.082293 8.028685 -0.734708 -6.622556 3.967120 0.195527 -3.680816 10.676587 -6.828692 -11.400486 -8.820210 -10.717502 10.734752 10.790587 20.257687 -7.533195 -16.585720 -7.067329 0.049268 0.407264 -8.617401 -3.560895 -10.283356 11.832445 4.656828 -1.626201 -5.378208 -0.003957 -0.916237 
1.332481 48.766838 -3.302306 6.077382 -1.845048 -6.934902 0.000000 0.000000 0.000000 -27.082369 2.661125 3.200665 33.861301 4.845315 -2.130467 -22.782919 -2.334745 0.515099 -3.519355 9.157742 6.311733 10.312380 14.781554 -10.757926 -13.741344 4.715429 0.737069 4.951983 10.485038 -8.488512 3.090466 -14.082293 8.028685 -0.697764 -6.669479 3.856095 0.223463 -3.743529 10.866616 -6.465578 -11.439461 -8.826153 -10.797759 10.786624 10.836381 20.242167 -7.572064 -16.715509 -6.999876 0.049248 0.321593 -8.700447 -3.525121 -10.257593 11.831300 4.646530 -1.792693 -5.417485 0.006921 -0.932906 
1.334089 48.770153 -3.289200 6.175054 -1.835002 -6.849103 0.000000 0.000000 0.000000 -27.102541 2.686741 3.235255 33.802101 4.863842 -2.039782 -22.813066 -2.367353 0.634691 -3.519355 9.157742 6.311733 10.034683 14.821525 -10.721484 -13.582898 4.679573 0.418175 4.652297 10.641279 -8.483105 3.090466 -14.082293 8.028685 -0.724077 -6.735465 3.816229 0.279859 -3.868452 11.267639 -6.223514 -11.465392 -8.827344 -10.886063 10.816594 10.882071 20.275694 -7.617694 -16.862816 -6.960957 0.063925 0.274687 -8.785629 -3.493926 -10.182460 11.844289 4.569983 -1.925184 -5.291436 -0.005925 -0.863661 
1.344216 48.771568 -3.268523 6.135938 -1.825427 -6.778449 0.000000 0.000000 0.000000 -26.996506 2.750224 3.297192 33.646530 4.892004 -2.035025 -22.552479 -2.499336 0.709260 -3.519355 9.157742 6.311733 9.636470 14.914145 -10.725690 -13.510980 4.674984 0.315664 4.286716 10.492657 -8.473778 3.090466 -14.082293 8.028685 -0.778957 -6.734388 3.763535 0.235699 -3.738469 10.633915 -7.204448 -11.412450 -8.824872 -10.807606 10.786730 10.865490 20.199383 -7.630792 -16.817995 -6.980431 0.066442 0.275851 -8.708199 -3.504234 -10.160146 11.827415 4.537129 -1.987188 -5.378485 0.004558 -0.923172 
1.341566 48.770622 -3.265920 6.184824 -1.834967 -6.732228 0.000000 0.000000 0.000000 -26.928301 2.760599 3.374182 33.490723 4.760190 -2.065764 -22.357046 -2.504469 0.651905 -3.519355 9.157742 6.311733 9.319762 14.981381 -10.603026 -13.380158 4.628428 -0.041073 4.116062 10.577738 -8.480352 3.090466 -14.082293 8.028685 -0.727914 -6.761397 3.590478 0.240602 -3.698987 10.208062 -8.309830 -11.464442 -8.826056 -10.826596 10.805458 10.893696 20.103994 -7.659759 -16.938040 -6.921872 0.064411 0.274846 -8.823064 -3.473641 -10.105655 11.979247 4.483481 -2.155774 -5.379088 -0.003375 -0.884079 
1.337542 48.771568 -3.249882 6.223907 -1.834832 -6.626058 0.000000 0.000000 0.000000 -26.868601 2.718474 3.408809 33.415436 4.668022 -2.032466 -22.332645 -2.312329 0.603647 -3.519355 9.157742 6.311733 9.064564 15.070020 -10.631956 -13.321360 4.626079 -0.358015 4.164422 10.446326 -8.475926 3.090466 -14.082293 8.028685 -0.693577 -6.802144 3.519054 0.230856 -3.656421 9.948084 -9.105389 -11.177899 -8.830750 -10.888989 10.810925 10.900551 20.190365 -7.676458 -17.008347 -6.961061 0.063738 0.263911 -8.836506 -3.436638 -10.018821 11.938685 4.382790 -2.333215 -5.359497 -0.003749 -0.884186 
1.346864 48.761635 -3.253572 6.311739 -1.805403 -6.625649 0.000000 0.000000 0.000000 -26.840761 2.780172 3.535625 33.301178 4.854710 -2.126245 -22.052828 -2.461963 0.579512 -3.519355 9.157742 6.311733 8.757722 15.114368 -10.778496 -13.298868 4.628570 -0.457382 3.779888 10.502055 -8.469373 3.090466 -14.082293 8.028685 -0.695430 -6.861517 3.268998 0.334902 -3.860716 10.197899 -9.548853 -10.991331 -8.835801 -10.971530 10.822888 10.917969 20.180693 -7.705503 -17.002151 -6.902987 0.060106 0.208748 -8.960092 -3.463954 -10.052039 12.017946 4.393280 -2.316522 -5.446696 0.004817 -0.933911 
1.345398 48.767784 -3.229393 6.174987 -1.815584 -6.632157 0.000000 0.000000 0.000000 -26.618116 2.872969 3.629793 33.488899 5.002743 -2.167799 -22.061493 -2.781179 0.700633 -3.519355 9.157742 6.311733 8.434456 15.194420 -10.897459 -13.373593 4.661583 -0.310975 3.826888 10.380322 -8.466762 3.090466 -14.082293 8.028685 -0.737024 -6.801082 3.028231 0.377304 -3.893730 9.942891 -10.025100 -10.996305 -8.841451 -10.778527 10.806545 10.934443 20.139027 -7.708954 -16.950090 -6.883151 0.065988 0.232744 -8.950361 -3.463987 -10.041921 12.346085 4.313268 -2.229861 -5.428939 -0.005394 -0.842567 
1.343221 48.758320 -3.218843 6.155282 -1.767104 -6.606768 0.000000 0.000000 0.000000 -26.530581 2.892647 3.703614 33.686085 4.426045 -2.085383 -21.874640 -2.373848 0.507347 -3.519355 9.157742 6.311733 8.271208 15.199554 -10.881657 -13.343712 4.653437 -0.313844 4.047875 10.499372 -8.471203 3.090466 -14.082293 8.028685 -0.882171 -6.726149 3.011267 0.382802 -3.919551 10.087527 -10.163391 -10.788187 -8.850389 -10.807249 10.766692 10.914914 20.221142 -7.709157 -16.997192 -6.892292 0.083391 0.261959 -8.971307 -3.513710 -10.042277 12.447941 4.285864 -2.195674 -5.478052 -0.006225 -0.832435 
1.330683 48.759258 -3.204789 6.057741 -1.815981 -6.647975 0.000000 0.000000 0.000000 -26.378241 3.054054 3.789272 33.894718 4.124710 -2.137474 -21.752516 -2.570757 0.508458 -3.519355 9.157742 6.311733 8.099807 15.172855 -10.847660 -13.282682 4.622380 -0.654448 4.067194 10.433000 -8.469150 3.090466 -14.082293 8.028685 -1.008428 -6.651608 2.865373 0.403549 -3.957884 10.075307 -10.332559 -10.929172 -8.843394 -10.652157 10.817145 10.967444 20.206661 -7.695610 -16.925980 -6.873192 0.074265 0.236451 -8.866982 -3.437715 -10.029763 12.466258 4.264660 -2.215593 -5.468253 -0.010856 -0.823782 
1.309767 48.760216 -3.202235 6.028462 -1.825791 -6.599245 0.000000 0.000000 0.000000 -26.320280 3.081859 3.818487 34.241661 3.856209 -2.067207 -21.766869 -2.739015 0.607511 -3.519355 9.157742 6.311733 7.962151 15.258581 -11.134310 -13.560614 4.675723 -0.621135 3.986917 10.579757 -8.474450 3.090466 -14.082293 8.028685 -0.964731 -6.654821 2.527898 0.624524 -4.386473 10.975869 -9.761762 -10.960876 -8.844005 -10.633018 10.847018 10.986964 20.214603 -7.695524 -17.042103 -6.892667 0.068552 0.255288 -8.758223 -3.417094 -10.035692 12.323847 4.287019 -2.224777 -5.564476 -0.001973 -0.905314 
1.286536 48.766838 -3.210704 6.047971 -1.816014 -6.501182 0.000000 0.000000 0.000000 -26.321453 3.125625 3.767574 34.456409 2.873107 -1.916628 -21.664188 -2.151109 0.375827 -3.519355 9.157742 6.311733 7.797668 15.167987 -11.212572 -13.431229 4.632575 -1.251481 4.043508 10.390312 -8.468289 3.090466 -14.082293 8.028685 -0.928583 -6.641212 2.298535 0.743432 -4.626350 11.353583 -9.581092 -11.044963 -8.834000 -10.652534 10.866502 11.005485 20.150789 -7.728421 -17.060900 -6.844289 0.068761 0.201874 -8.826577 -3.426781 -10.057624 12.438934 4.295941 -2.341644 -5.516472 -0.013415 -0.846313 
1.267328 48.764000 -3.208671 5.901674 -1.894211 -6.309265 0.000000 0.000000 0.000000 -26.090658 3.272249 3.584819 34.351261 2.448598 -1.886410 -21.633963 -2.109565 0.340392 -3.519355 9.157742 6.311733 7.539800 15.093246 -11.344623 -13.309245 4.621013 -1.378005 3.731496 10.633460 -8.473784 3.090466 -14.082293 8.028685 -1.154382 -6.647033 2.590335 0.689321 -4.522194 11.319608 -9.445647 -10.947840 -8.838867 -10.553497 10.932765 11.026161 20.222195 -7.686096 -17.304134 -6.776190 0.059268 0.186844 -8.617599 -3.365866 -10.069757 12.371635 4.335383 -2.606355 -5.516565 -0.016208 -0.836886 
1.243578 48.752640 -3.219079 5.882034 -1.865135 -6.276318 0.000000 0.000000 0.000000 -26.081375 3.290065 3.557274 34.558784 2.521554 -1.820168 -21.733864 -2.604983 0.654242 -3.519355 9.157742 6.311733 7.434881 15.142811 -11.506783 -13.496001 4.660601 -1.420312 3.333020 10.647747 -8.467464 3.090466 -14.082293 8.028685 -1.173635 -6.587301 2.719761 0.675489 -4.518359 11.514600 -9.206725 -11.093016 -8.834679 -10.594858 10.936212 11.005755 20.318493 -7.670146 -17.428343 -6.911944 0.050015 0.321803 -8.528542 -3.374935 -10.066349 12.191802 4.375068 -2.635797 -5.632053 0.010119 -0.964103 
1.211544 48.760685 -3.233699 5.823345 -1.845900 -6.106412 0.000000 0.000000 0.000000 -26.030775 3.230010 3.365414 34.714672 2.254103 -1.733056 -21.964674 -2.455789 0.648898 -3.519355 9.157742 6.311733 7.353816 15.080388 -11.268932 -13.258844 4.583069 -1.993018 3.803562 10.544745 -8.470270 3.090466 -14.082293 8.028685 -1.248270 -6.493766 2.940750 0.524098 -4.274826 11.360848 -8.884969 -11.049502 -8.839342 -10.532453 10.910967 11.036764 20.208345 -7.676307 -17.621777 -6.804366 0.063358 0.306254 -8.580434 -3.415955 -10.117066 12.457403 4.366195 -2.694182 -5.721709 0.001541 -0.882967 
